<svg width="180" height="40" viewBox="0 0 180 40" fill="none" xmlns="http://www.w3.org/2000/svg">
  <circle cx="20" cy="20" r="16" stroke="#ffffff" stroke-width="2.5" fill="none"/>
  <path d="M14 16.5c0 4.14 3.36 7.5 7.5 7.5h1.13a1.13 1.13 0 0 0 1.12-1.13v-.68a.56.56 0 0 0-.43-.55l-2.21-.55a.56.56 0 0 0-.59.21l-.48.65a.56.56 0 0 1-.61.19 6.02 6.02 0 0 1-3.57-3.57.56.56 0 0 1 .19-.61l.65-.48a.56.56 0 0 0 .21-.59l-.55-2.21a.56.56 0 0 0-.55-.43h-.68A1.13 1.13 0 0 0 14 15.38v1.12Z" fill="#ffffff"/>
  <text x="44" y="26.5" font-family="'DM Sans', 'Helvetica Neue', sans-serif" font-size="20" font-weight="600" fill="#ffffff" letter-spacing="-0.5">dine</text>
  <text x="87" y="26.5" font-family="'DM Serif Display', Georgia, serif" font-size="20" font-weight="400" fill="#ffffff" letter-spacing="-0.3">line</text>
</svg>
